<?xml version="1.0" encoding="UTF-8" standalone="no"?>
<!-- Created with Inkscape (http://www.inkscape.org/) -->

<svg
   xmlns:dc="http://purl.org/dc/elements/1.1/"
   xmlns:cc="http://creativecommons.org/ns#"
   xmlns:rdf="http://www.w3.org/1999/02/22-rdf-syntax-ns#"
   xmlns:svg="http://www.w3.org/2000/svg"
   xmlns="http://www.w3.org/2000/svg"
   xmlns:sodipodi="http://sodipodi.sourceforge.net/DTD/sodipodi-0.dtd"
   xmlns:inkscape="http://www.inkscape.org/namespaces/inkscape"
   id="svg7384"
   height="128"
   width="128"
   version="1.1"
   inkscape:version="0.48.4 r9939"
   sodipodi:docname="diff-symbolic.svg">
  <defs
     id="defs14" />
  <sodipodi:namedview
     pagecolor="#ffffff"
     bordercolor="#666666"
     borderopacity="1"
     objecttolerance="10"
     gridtolerance="10"
     guidetolerance="10"
     inkscape:pageopacity="0"
     inkscape:pageshadow="2"
     inkscape:window-width="1175"
     inkscape:window-height="835"
     id="namedview12"
     showgrid="false"
     inkscape:zoom="2.8284271"
     inkscape:cx="-36.383166"
     inkscape:cy="7.5355536"
     inkscape:window-x="0"
     inkscape:window-y="27"
     inkscape:window-maximized="0"
     inkscape:current-layer="svg7384" />
  <metadata
     id="metadata90">
    <rdf:RDF>
      <cc:Work
         rdf:about="">
        <dc:format>image/svg+xml</dc:format>
        <dc:type
           rdf:resource="http://purl.org/dc/dcmitype/StillImage" />
        <dc:title>Gnome Symbolic Icon Theme</dc:title>
      </cc:Work>
    </rdf:RDF>
  </metadata>
  <title
     id="title9167">Gnome Symbolic Icon Theme</title>
  <g
     id="g3985"
     transform="matrix(8.3610195,0,0,8.3610195,-2.9536993,-15.716082)">
    <g
       transform="matrix(1.4122315,0,0,1.4122315,-0.0441821,-1.7635987)"
       id="g3919">
      <path
         style="fill:#bebebe;fill-opacity:1;stroke:none"
         d="m 1.6548392,5.6223232 0,-1.3441487 1.3441488,0 -2e-7,1.3441487 1.3441487,0 0,1.3441494 -1.3441487,-7e-7 10e-8,1.3441487 -1.3441487,0 0,-1.3441487 -1.34414878,7e-7 0,-1.3441494 z"
         id="rect3796"
         inkscape:connector-curvature="0"
         sodipodi:nodetypes="ccccccccccccc" />
      <path
         sodipodi:nodetypes="ccccc"
         inkscape:connector-curvature="0"
         id="path3811"
         d="m 4.3431365,10.377676 0,1.34415 -4.03244608,0 0,-1.34415 z"
         style="fill:#bebebe;fill-opacity:1;stroke:none" />
    </g>
    <g
       transform="matrix(1.4122315,0,0,1.4122315,1.5584969,-1.7635984)"
       id="g3923">
      <path
         sodipodi:nodetypes="ccccccccccccc"
         inkscape:connector-curvature="0"
         id="path3799"
         d="m 7.3279261,5.6223232 0,-1.3441487 1.3441488,0 -10e-8,1.3441487 1.3441482,0 0,1.3441494 -1.3441482,-7e-7 10e-8,1.3441487 -1.3441488,0 0,-1.3441487 -1.3441488,7e-7 0,-1.3441494 z"
         style="fill:#bebebe;fill-opacity:1;stroke:none" />
      <path
         sodipodi:nodetypes="ccccc"
         inkscape:connector-curvature="0"
         id="path3819"
         d="m 10.016223,10.377676 0,1.34415 -4.0324459,0 0,-1.34415 z"
         style="fill:#bebebe;fill-opacity:1;stroke:none" />
    </g>
  </g>
</svg>
