<?xml version="1.0" encoding="UTF-8" standalone="no"?>
<svg
   xmlns:dc="http://purl.org/dc/elements/1.1/"
   xmlns:cc="http://creativecommons.org/ns#"
   xmlns:rdf="http://www.w3.org/1999/02/22-rdf-syntax-ns#"
   xmlns:svg="http://www.w3.org/2000/svg"
   xmlns="http://www.w3.org/2000/svg"
   xmlns:sodipodi="http://sodipodi.sourceforge.net/DTD/sodipodi-0.dtd"
   xmlns:inkscape="http://www.inkscape.org/namespaces/inkscape"
   width="16"
   height="16"
   version="1.1"
   id="svg8"
   sodipodi:docname="org.gnome.Commits-symbolic.svg"
   inkscape:version="0.92.3 (2405546, 2018-03-11)">
  <metadata
     id="metadata14">
    <rdf:RDF>
      <cc:Work
         rdf:about="">
        <dc:format>image/svg+xml</dc:format>
        <dc:type
           rdf:resource="http://purl.org/dc/dcmitype/StillImage" />
        <dc:title />
      </cc:Work>
    </rdf:RDF>
  </metadata>
  <defs
     id="defs12" />
  <sodipodi:namedview
     pagecolor="#ffffff"
     bordercolor="#666666"
     borderopacity="1"
     objecttolerance="10"
     gridtolerance="10"
     guidetolerance="10"
     inkscape:pageopacity="0"
     inkscape:pageshadow="2"
     inkscape:window-width="1920"
     inkscape:window-height="1016"
     id="namedview10"
     showgrid="true"
     inkscape:zoom="83.4386"
     inkscape:cx="7.5634536"
     inkscape:cy="7.0982975"
     inkscape:window-x="0"
     inkscape:window-y="27"
     inkscape:window-maximized="1"
     inkscape:current-layer="svg8" />
  <path
     inkscape:connector-curvature="0"
     style="display:inline;opacity:1;vector-effect:none;fill:#17212b;fill-opacity:1;stroke:none;stroke-width:3.78629327;stroke-linecap:square;stroke-linejoin:round;stroke-miterlimit:4;stroke-dasharray:none;stroke-dashoffset:0;stroke-opacity:1;enable-background:new"
     d="M 1.9999998,2 C 0.89199985,2 -1.5e-7,2.892 -1.5e-7,4 V 6 H 10.58789 A 1.5,1.5 0 0 1 12,5 1.5,1.5 0 0 1 13.5,6.5 1.5,1.5 0 0 1 12,8 1.5,1.5 0 0 1 10.58789,7 H 3.2070298 l 3,3 h 1.38086 A 1.5,1.5 0 0 1 8.9999999,9 1.5,1.5 0 0 1 10.5,10.5 1.5,1.5 0 0 1 8.9999999,12 1.5,1.5 0 0 1 7.5878898,11 h -1.79492 l -4,-4 H -1.5e-7 v 5 c 0,1.108 0.892,2 1.99999995,2 H 14 c 1.108,0 2,-0.892 2,-2 V 4 C 16,2.892 15.108,2 14,2 Z"
     id="rect353-3" />
</svg>
